<?xml version="1.0" encoding="UTF-8"?>
<svg version="1.1" viewBox="0 0 2048 1134" width="2400" height="1329" xmlns="http://www.w3.org/2000/svg">
<path transform="translate(945,234)" d="m0 0 15 2 22 5 17 5 21 9 16 9 17 12 13 12 8 8 11 15 9 16 8 17 12 36 13 51 9 27 8 18 10 17 10 13 10 10 11 6 6 2h8l10-4 7-8 4-10 1-7v-11l-3-18-7-24-12-28-2-6 5 5 8 9 13 17 13 18 10 15 11 18 10 18 8 16 8 17 9 24 7 23 6 26 3 23 1 14v23l-3 29-5 23-6 20-8 19-11 21-12 17-9 11-14 15-8 7-12 10-17 12-25 14-23 10-26 8-21 5-27 4-12 1h-17l3-2 17-6 20-9 17-10 10-8 10-9 11-14 8-16 4-13 1-6v-24l-4-19-7-19-10-21-14-23-13-18-13-16-12-14-11-12-19-19-11-9-11-10-26-20-18-12 3 29 5 23 6 20 6 15 9 19 13 23 9 17 8 20 4 16v18l-4 10-6 8-10 7-4 2h-4l-1-25-4-15-7-14-10-14-12-13-11-9-14-10-18-10 3 25v27l-3 19-5 16-8 19-6 15-2 16 2 14 6 15 10 16 11 13 7 8-3 1-23-5-24-7-21-8-20-9-21-11-12-8-9-7-11-9-7-8-8-9-10-15-10-21-7-21-5-24-3-26-4-53-4-28-6-25-6-16v-2l6 1 12 5 18 12 13 12 7 7 13 17 10 14 7 6 3 1-5-29-3-20-1-10-1-24 1-20 3-18 6-21 6-15 9-17 11-17 13-17 14-17 13-15 11-13 12-16 9-14 9-17 6-16 5-24 1-10v-24l-3-25-5-21z" fill="#092045"/>
<path transform="translate(1196,407)" d="m0 0"/>
</svg>